<?xml version="1.0" encoding="iso-8859-1"?>
<!-- Generator: Adobe Illustrator 18.1.1, SVG Export Plug-In . SVG Version: 6.00 Build 0)  -->
<svg version="1.1" id="Capa_1" xmlns="http://www.w3.org/2000/svg" xmlns:xlink="http://www.w3.org/1999/xlink" x="0px" y="0px"
	 viewBox="0 0 28.713 28.713" style="enable-background:new 0 0 28.713 28.713;" xml:space="preserve">
<g>
	<path style="fill:#010002;" d="M21.793,0H6.918C6.295,0,5.79,0.504,5.79,1.128v26.458c0,0.621,0.505,1.127,1.128,1.127h14.875
		c0.623,0,1.127-0.506,1.127-1.127V1.128h0.002C22.923,0.504,22.417,0,21.793,0z M14.349,27.524c-0.733,0-1.328-0.594-1.328-1.327
		c0-0.731,0.595-1.325,1.328-1.325s1.327,0.594,1.327,1.325C15.676,26.93,15.082,27.524,14.349,27.524z M20.184,21.875H8.53V3.701
		h11.655V21.875z"/>
</g>
<g>
</g>
<g>
</g>
<g>
</g>
<g>
</g>
<g>
</g>
<g>
</g>
<g>
</g>
<g>
</g>
<g>
</g>
<g>
</g>
<g>
</g>
<g>
</g>
<g>
</g>
<g>
</g>
<g>
</g>
</svg>
